<svg color-interpolation="auto" fill="black" fill-opacity="1" height="170.37" stroke="black" stroke-dasharray="none" stroke-dashoffset="0" stroke-linecap="square" stroke-linejoin="miter" stroke-miterlimit="10" stroke-opacity="1" stroke-width="1" style="fill: black;" width="167.95" xmlns="http://www.w3.org/2000/svg"><defs id="genericDefs"><clipPath id="d1_1" xmlns=""><path d="M0 0V170.37H167.95V0Z"/></clipPath><clipPath clip-path="url(#d1_1)" id="c1" xmlns=""><path d="M-41.77 712.94H638.54V-137.45H-41.77Z"/></clipPath><clipPath id="d2_3" xmlns=""><path d="M0 0V170.37H167.95V0Z"/></clipPath><clipPath clip-path="url(#d2_3)" id="d2_4" xmlns=""><path d="M-41.77 712.94H638.54V-137.45H-41.77Z"/></clipPath><clipPath clip-path="url(#d2_4)" id="c2" xmlns=""><path d="M43.66 136.9H122.1V34.87H43.66Z"/></clipPath></defs><g><g color-interpolation="linearRGB" fill="white" stroke="white" stroke-linecap="butt" stroke-width="0.59"><path clip-path="url(#c1)" d="M5 165.37H162.95V5H5Z" stroke="none"/><path clip-path="url(#c2)" d="M100.42 56.99V75.2c0 3.28-2.66 5.93-5.93 5.93s-5.93-2.65-5.93-5.93V68.93H77.2V73.5c0 9.66 7.83 17.48 17.48 17.48s17.48-7.83 17.48-17.48c0-7.64-4.91-14.13-11.74-16.51" fill="rgb(35,62,121)" stroke="none"/><path clip-path="url(#c2)" d="M77.2 51.42v5.64H88.56V52.35c0-9.66-7.83-17.48-17.48-17.48S53.6 42.69 53.6 52.35c0 7.64 4.9 14.13 11.74 16.51V51.42c0-3.28 2.66-5.93 5.93-5.93s5.93 2.66 5.93 5.93" fill="rgb(35,62,121)" stroke="none"/><path clip-path="url(#c2)" d="M65.33 69.86c0-.06 0-.12 0-.19-5.41 1.4-9.42 6.31-9.42 12.16 0 6.94 5.63 12.57 12.57 12.57 5.22 0 9.7-3.19 11.6-7.73-8.33-1.08-14.76-8.2-14.76-16.82" fill="rgb(228,33,39)" stroke="none"/><path clip-path="url(#c2)" d="M94.21 35.36c-3.44 0-6.51 1.52-8.62 3.91 8.36.98 14.86 8.08 14.86 16.71 0 .18-.02.36-.03.54 3.18-2.04 5.28-5.6 5.28-9.66 0-6.35-5.15-11.49-11.49-11.49" fill="rgb(228,33,39)" stroke="none"/><path clip-path="url(#c2)" d="M55.26 105.32v13.72H52.62v-5.85H46.39v5.85H43.73V105.32h2.66v5.54h6.22v-5.54Z" fill="rgb(35,31,32)" stroke="none"/><path clip-path="url(#c2)" d="M67.64 116.7v2.34H58.12V105.32h9.35v2.34H60.79v3.3h5.76v2.16H60.79v3.58Z" fill="rgb(35,31,32)" stroke="none"/><path clip-path="url(#c2)" d="M78.09 115c0-.35-.07-.66-.21-.94s-.33-.5-.57-.67-.51-.25-.82-.25h-4.1v3.63h3.96c.32 0 .61-.08.88-.24s.47-.38.63-.65.23-.57.23-.89m-5.7-7.4v3.46h3.55c.3 0 .57-.07.81-.21s.44-.34.59-.6.22-.56.22-.91c0-.36-.07-.67-.2-.92s-.31-.45-.54-.6-.48-.22-.76-.22Zm8.38 7.92c0 .76-.2 1.4-.6 1.92s-.94.92-1.61 1.19-1.41.4-2.21.4H69.73V105.32h7.34c.64 0 1.2.17 1.67.51s.83.78 1.08 1.32.38 1.09.38 1.67c0 .66-.17 1.28-.5 1.87s-.82 1.03-1.47 1.32c.78.23 1.4.65 1.86 1.26s.69 1.35.69 2.26" fill="rgb(35,31,32)" stroke="none"/><path clip-path="url(#c2)" d="M85.53 112.1h3.34c.33 0 .63-.1.89-.3s.47-.47.62-.8.23-.71.23-1.12c0-.43-.09-.81-.27-1.14s-.4-.6-.68-.79-.57-.29-.89-.29H85.53Zm-2.67 6.93V105.32h6.09c.62 0 1.2.13 1.73.39s1 .6 1.39 1.04.7.93.91 1.47.32 1.09.32 1.66-.1 1.13-.3 1.66-.49 1-.86 1.4-.81.72-1.32.94l3.13 5.16H91.02l-2.82-4.59H85.53v4.59Z" fill="rgb(35,31,32)" stroke="none"/><path clip-path="url(#c2)" d="M97.51 112.18c0 .59.09 1.17.27 1.72s.44 1.05.78 1.48.76.77 1.26 1.03 1.06.38 1.69.38c.66 0 1.23-.13 1.72-.4s.9-.61 1.25-1.05.59-.94.76-1.49.25-1.11.25-1.66c0-.59-.09-1.16-.27-1.71s-.45-1.03-.79-1.47-.76-.77-1.25-1.02-1.05-.38-1.68-.38-1.19.13-1.69.4-.92.61-1.26 1.04-.6.92-.77 1.47-.26 1.1-.26 1.67m3.98 6.96c-1 0-1.91-.19-2.72-.58s-1.51-.91-2.11-1.58-1.05-1.41-1.37-2.24-.48-1.68-.48-2.56c0-.91.17-1.79.51-2.62s.81-1.57 1.41-2.22 1.31-1.17 2.13-1.54 1.72-.57 2.69-.57c.99 0 1.9.2 2.71.6s1.52.93 2.1 1.6 1.03 1.42 1.34 2.24.47 1.68.47 2.55c0 .9-.16 1.77-.49 2.6s-.79 1.57-1.39 2.22-1.3 1.16-2.12 1.53-1.71.56-2.67.56" fill="rgb(35,31,32)" stroke="none"/><path clip-path="url(#c2)" d="M112.9 110.23v8.81h-2.67V105.32h2.15l7.07 9.04v-9.02h2.65v13.7h-2.2Z" fill="rgb(35,31,32)" stroke="none"/><path clip-path="url(#c2)" d="M47.51 123.65c-.11-.2-.26-.36-.45-.46s-.41-.16-.67-.16c-.28 0-.53.06-.75.2s-.39.31-.51.54-.19.51-.19.82.06.59.19.83.3.42.52.55.48.19.78.19c.36 0 .66-.1.89-.29s.38-.46.45-.81H46.15v-.73h2.58v.83c-.06.33-.2.64-.41.92s-.48.51-.81.68-.7.25-1.11.25c-.46 0-.88-.1-1.24-.31s-.66-.49-.88-.86-.32-.78-.32-1.25.11-.89.32-1.26.5-.66.88-.86.78-.32 1.23-.32c.54 0 1 .13 1.4.4s.67.62.82 1.1Z" fill="rgb(35,31,32)" stroke="none"/><path clip-path="url(#c2)" d="M50.39 122.98v1.2h1.6v.76h-1.6v1.26h1.81v.78H49.44v-4.77h2.76v.78Z" fill="rgb(35,31,32)" stroke="none"/><path clip-path="url(#c2)" d="M57.13 126.97h-.95l-2.16-3.26v3.26h-.95v-4.77h.95l2.16 3.27v-3.27h.95Z" fill="rgb(35,31,32)" stroke="none"/><path clip-path="url(#c2)" d="M59.03 122.98v1.2h1.6v.76h-1.6v1.26h1.81v.78H58.07v-4.77h2.76v.78Z" fill="rgb(35,31,32)" stroke="none"/><path clip-path="url(#c2)" d="M62.65 124.4h.8c.26 0 .45-.06.58-.18s.19-.3.19-.52-.06-.39-.19-.51-.32-.18-.58-.18h-.8Zm1.5 2.57l-1.05-1.85h-.45v1.85H61.7v-4.76h1.79c.37 0 .68.06.94.2s.46.3.59.52.19.47.19.74c0 .32-.09.6-.27.86s-.45.42-.81.52l1.14 1.93Z" fill="rgb(35,31,32)" stroke="none"/><path clip-path="url(#c2)" d="M68.72 125.3l-.69-1.99-.69 1.99Zm.26.77h-1.9l-.31.9h-1l1.71-4.77H68.6l1.71 4.77H69.3Z" fill="rgb(35,31,32)" stroke="none"/><path clip-path="url(#c2)" d="M71.9 126.21h1.57v.76H70.95v-4.76h.95Z" fill="rgb(35,31,32)" stroke="none"/><path clip-path="url(#c2)" d="M78.94 122.22v.77H77.67v3.99h-.95v-3.99H75.45v-.77Z" fill="rgb(35,31,32)" stroke="none"/><path clip-path="url(#c2)" d="M80.58 124.4h.8c.26 0 .45-.06.58-.18s.19-.3.19-.52-.06-.39-.19-.51-.32-.18-.58-.18h-.8Zm1.5 2.57l-1.05-1.85h-.45v1.85h-.95v-4.76h1.79c.37 0 .68.06.94.2s.46.3.59.52.19.47.19.74c0 .32-.09.6-.27.86s-.45.42-.81.52l1.14 1.93Z" fill="rgb(35,31,32)" stroke="none"/><path clip-path="url(#c2)" d="M86.66 125.3l-.69-1.99-.69 1.99Zm.26.77h-1.9l-.31.9h-1l1.71-4.77h1.11l1.71 4.77H87.23Z" fill="rgb(35,31,32)" stroke="none"/><path clip-path="url(#c2)" d="M91.67 125.75c.27-.28.41-.66.41-1.16s-.14-.88-.41-1.16-.66-.42-1.16-.42h-.67v3.14h.67c.5 0 .89-.14 1.16-.41m.19-3.25c.38.2.67.48.88.84s.31.78.31 1.25-.1.9-.31 1.25-.5.63-.88.83-.82.29-1.32.29H88.88v-4.76h1.66c.5 0 .94.1 1.32.29" fill="rgb(35,31,32)" stroke="none"/><path clip-path="url(#c2)" d="M94.72 126.97h-.95v-4.76h.95Z" fill="rgb(35,31,32)" stroke="none"/><path clip-path="url(#c2)" d="M99.73 126.97h-.95l-2.16-3.26v3.26h-.95v-4.77h.95l2.16 3.27v-3.27h.95Z" fill="rgb(35,31,32)" stroke="none"/><path clip-path="url(#c2)" d="M103.99 123.65c-.11-.2-.26-.36-.45-.46s-.42-.16-.67-.16c-.28 0-.53.06-.75.2s-.39.31-.51.54-.19.51-.19.82.06.59.19.83.3.42.52.55.48.19.78.19c.36 0 .66-.1.89-.29s.38-.46.46-.81h-1.63v-.73h2.58v.83c-.06.33-.2.64-.41.92s-.48.51-.81.68-.7.25-1.11.25c-.46 0-.88-.1-1.24-.31s-.66-.49-.88-.86-.32-.78-.32-1.25.11-.89.32-1.26.5-.66.88-.86.78-.32 1.23-.32c.54 0 1 .13 1.4.4s.67.62.82 1.1Z" fill="rgb(35,31,32)" stroke="none"/><path clip-path="url(#c2)" d="M108.48 126.21h1.57v.76h-2.52v-4.76h.95Z" fill="rgb(35,31,32)" stroke="none"/><path clip-path="url(#c2)" d="M110.66 126.86c-.11-.11-.17-.24-.17-.4s.06-.29.17-.4.25-.16.43-.16.3.05.42.16.16.24.16.4-.06.29-.16.4-.25.16-.42.16-.32-.05-.43-.16" fill="rgb(35,31,32)" stroke="none"/><path clip-path="url(#c2)" d="M113.39 126.21h1.57v.76h-2.52v-4.76h.95Z" fill="rgb(35,31,32)" stroke="none"/><path clip-path="url(#c2)" d="M115.56 126.86c-.11-.11-.17-.24-.17-.4s.06-.29.17-.4.25-.16.43-.16.3.05.42.16.16.24.16.4-.06.29-.16.4-.25.16-.42.16-.32-.05-.43-.16" fill="rgb(35,31,32)" stroke="none"/><path clip-path="url(#c2)" d="M117.42 123.33c.21-.37.5-.66.87-.86s.78-.32 1.23-.32c.53 0 1 .14 1.4.41s.68.65.84 1.13h-1.1c-.11-.23-.26-.4-.46-.52s-.43-.17-.68-.17c-.28 0-.52.06-.74.19s-.38.32-.5.55-.18.51-.18.83.06.59.18.82.29.43.5.56.46.2.74.2c.26 0 .49-.06.68-.17s.35-.29.46-.52h1.1c-.16.48-.44.86-.83 1.13s-.87.4-1.4.4c-.46 0-.87-.1-1.23-.31s-.65-.49-.87-.86-.32-.78-.32-1.25.11-.89.32-1.26" fill="rgb(35,31,32)" stroke="none"/><path clip-path="url(#c2)" d="M52.06 131.45l-1.79 5.4H49.21l-1.33-3.99-1.36 3.99H45.45l-1.79-5.4H44.7l1.34 4.1 1.4-4.1h.93l1.36 4.12 1.38-4.12Z" fill="rgb(35,31,32)" stroke="none"/><path clip-path="url(#c2)" d="M53.1 134.46h2.34c-.08-.59-.53-1-1.17-1-.62 0-1.08.4-1.17 1m3.24.64H53.11c.11.6.62.99 1.33.99.46 0 .82-.15 1.12-.45l.52.59c-.37.44-.95.67-1.66.67-1.38 0-2.28-.89-2.28-2.11s.9-2.11 2.13-2.11c1.2 0 2.08.84 2.08 2.13 0 .08-.01.19-.02.29" fill="rgb(35,31,32)" stroke="none"/><path clip-path="url(#c2)" d="M61.89 136.63c-.23.18-.58.28-.93.28-.9 0-1.42-.48-1.42-1.39v-1.98h-.68v-.77h.68v-.94h.96v.94h1.1v.77h-1.1v1.96c0 .4.2.61.57.61.2 0 .39-.05.54-.17Z" fill="rgb(35,31,32)" stroke="none"/><path clip-path="url(#c2)" d="M65.07 132.69v.92c-.08-.02-.15-.03-.22-.03-.73 0-1.19.43-1.19 1.27v2h-.97v-4.12h.92v.6c.28-.43.78-.65 1.47-.65" fill="rgb(35,31,32)" stroke="none"/><path clip-path="url(#c2)" d="M68.35 135.56v-.48h-.99c-.65 0-.83.25-.83.55 0 .35.29.57.79.57.47 0 .88-.22 1.04-.64m.96-1.12v2.41h-.91v-.5c-.23.36-.68.56-1.3.56-.94 0-1.53-.52-1.53-1.23 0-.69.46-1.23 1.71-1.23h1.06v-.06c0-.56-.34-.9-1.03-.9-.46 0-.94.16-1.25.41l-.38-.7c.44-.34 1.08-.51 1.74-.51 1.18 0 1.87.56 1.87 1.75" fill="rgb(35,31,32)" stroke="none"/><path clip-path="url(#c2)" d="M73.68 134.79c0-.79-.53-1.29-1.23-1.29s-1.23.5-1.23 1.29.53 1.29 1.23 1.29 1.23-.5 1.23-1.29m.95-3.66v5.72H73.7v-.53c-.32.39-.8.58-1.37.58-1.19 0-2.08-.83-2.08-2.11s.89-2.1 2.08-2.1c.53 0 1 .18 1.33.55v-2.11Z" fill="rgb(35,31,32)" stroke="none"/><path clip-path="url(#c2)" d="M76.51 134.46h2.34c-.08-.59-.53-1-1.17-1-.62 0-1.08.4-1.17 1m3.24.64H76.52c.11.6.62.99 1.33.99.46 0 .82-.15 1.12-.45l.52.59c-.37.44-.95.67-1.66.67-1.38 0-2.28-.89-2.28-2.11s.9-2.11 2.13-2.11c1.2 0 2.08.84 2.08 2.13 0 .08-.01.19-.02.29" fill="rgb(35,31,32)" stroke="none"/><path clip-path="url(#c2)" d="M85.3 136.63c-.23.18-.58.28-.93.28-.9 0-1.42-.48-1.42-1.39v-1.98h-.68v-.77h.68v-.94h.96v.94h1.1v.77h-1.1v1.96c0 .4.2.61.57.61.2 0 .39-.05.54-.17Z" fill="rgb(35,31,32)" stroke="none"/><path clip-path="url(#c2)" d="M90.15 134.49v2.36h-.96v-2.24c0-.73-.36-1.09-.98-1.09-.69 0-1.15.42-1.15 1.24v2.08H86.1v-5.72h.96v2.08c.32-.34.8-.52 1.37-.52.99 0 1.72.56 1.72 1.8" fill="rgb(35,31,32)" stroke="none"/><path clip-path="url(#c2)" d="M92.04 134.46h2.34c-.08-.59-.53-1-1.16-1s-1.08.4-1.17 1m3.24.64H92.05c.12.6.62.99 1.33.99.46 0 .83-.15 1.12-.45l.52.59c-.37.44-.95.67-1.66.67-1.38 0-2.27-.89-2.27-2.11s.9-2.11 2.13-2.11c1.2 0 2.08.84 2.08 2.13 0 .08-.01.19-.01.29" fill="rgb(35,31,32)" stroke="none"/><path clip-path="url(#c2)" d="M104.77 132.73l-1.52 4.12h-.92l-1.07-2.84-1.08 2.84h-.93l-1.51-4.12h.91l1.09 3.04 1.13-3.04h.81l1.11 3.05 1.12-3.05Z" fill="rgb(35,31,32)" stroke="none"/><path clip-path="url(#c2)" d="M108.4 134.79c0-.79-.52-1.29-1.23-1.29s-1.22.5-1.22 1.29.52 1.29 1.22 1.29 1.23-.5 1.23-1.29m-3.41 0c0-1.23.92-2.1 2.19-2.1 1.28 0 2.2.87 2.2 2.1s-.92 2.11-2.2 2.11c-1.27 0-2.19-.88-2.19-2.11" fill="rgb(35,31,32)" stroke="none"/><path clip-path="url(#c2)" d="M112.69 132.69v.92c-.09-.02-.15-.03-.22-.03-.73 0-1.19.43-1.19 1.27v2h-.96v-4.12h.92v.6c.28-.43.78-.65 1.46-.65" fill="rgb(35,31,32)" stroke="none"/><path clip-path="url(#c2)" d="M113.51 131.13h.96v5.72h-.96Z" fill="rgb(35,31,32)" stroke="none"/><path clip-path="url(#c2)" d="M118.82 134.79c0-.79-.53-1.29-1.23-1.29s-1.22.5-1.22 1.29.53 1.29 1.22 1.29 1.23-.5 1.23-1.29m.95-3.66v5.72h-.93v-.53c-.32.39-.8.58-1.36.58-1.2 0-2.08-.83-2.08-2.11s.89-2.1 2.08-2.1c.53 0 1 .18 1.33.55v-2.11Z" fill="rgb(35,31,32)" stroke="none"/><path clip-path="url(#c2)" d="M120.92 131.45h1.14l-.19 3.61h-.76Zm-.05 4.85c0-.33.26-.59.62-.59s.61.26.61.59-.25.6-.61.6-.62-.27-.62-.6" fill="rgb(35,31,32)" stroke="none"/></g></g></svg>